
      <svg data-logo="logo" xmlns="http://www.w3.org/2000/svg" viewBox="0 0 173.0349884033203 28.8544921875">
        <g id="logogram" transform="
    translate(0, 0)
    rotate(0 0 0)
    
  "></g>
        <g id="logotype" transform="translate(1.23046875, 0)"><path fill="#ffffff" d="M0.58 27.41L0.58 27.41Q0.10 27.10-0.19 26.62Q-0.48 26.15-0.67 25.60Q-0.85 25.05-0.97 24.45Q-1.09 23.86-1.23 23.31L-1.23 23.31Q-1.23 22.83-1.03 22.61Q-0.82 22.39-0.58 22.18L-0.58 22.18Q0.24 22.15 0.89 22.04Q1.54 21.94 2.15 21.84Q2.77 21.74 3.38 21.65Q4.00 21.57 4.72 21.57L4.72 21.57Q5.23 20.51 5.67 19.53Q6.12 18.56 6.53 17.67L6.53 17.67Q6.73 16.81 7.06 16.08Q7.38 15.34 7.69 14.68Q8.00 14.01 8.24 13.35Q8.48 12.68 8.54 11.93L8.54 11.93Q8.96 10.73 9.28 9.72Q9.60 8.71 9.78 7.31L9.78 7.31Q8.48 7.52 7.69 7.71Q6.90 7.89 6.56 8.06L6.56 8.06Q5.88 8.03 5.49 7.79Q5.09 7.55 4.85 7.21Q4.61 6.87 4.44 6.42Q4.27 5.98 4.03 5.50L4.03 5.50Q4.17 5.19 4.10 4.60Q4.03 4.00 3.69 3.72L3.69 3.72Q3.96 3.66 4.10 3.26Q4.24 2.87 4.14 2.66L4.14 2.66Q4.72 2.49 5.37 2.44Q6.02 2.39 6.65 2.34Q7.28 2.29 7.86 2.20Q8.44 2.12 8.85 1.84L8.85 1.84Q10.63 1.78 12.56 1.71Q14.49 1.64 16.13 1.54L16.13 1.54Q16.75 1.74 17.55 1.74Q18.35 1.74 19.16 1.84Q19.96 1.95 20.59 2.29Q21.23 2.63 21.46 3.48L21.46 3.48Q21.98 3.55 22.23 3.76Q22.49 3.96 22.56 4.25Q22.63 4.54 22.61 4.90Q22.59 5.26 22.59 5.60L22.59 5.60Q22.05 6.01 21.21 6.27Q20.37 6.53 19.38 6.68Q18.39 6.83 17.31 6.89Q16.24 6.94 15.21 6.97L15.21 6.97Q15.04 8.10 14.61 9.62Q14.18 11.14 13.74 12.59Q13.30 14.05 12.97 15.19Q12.65 16.34 12.68 16.68L12.68 16.68Q12.34 17.46 12.12 18.01Q11.89 18.56 11.71 19.04Q11.52 19.51 11.33 19.98Q11.14 20.44 10.87 21.02L10.87 21.02L13.19 21.02Q13.26 21.39 13.50 21.53Q13.74 21.67 14.01 21.77Q14.29 21.87 14.51 22.03Q14.73 22.18 14.73 22.52L14.73 22.52Q15.38 22.69 15.55 23.04Q15.72 23.38 15.64 23.77Q15.55 24.16 15.30 24.57Q15.04 24.98 14.80 25.29L14.80 25.29Q14.49 25.22 14.22 25.44Q13.95 25.67 13.71 25.94L13.71 25.94Q12.71 25.80 11.76 25.91Q10.80 26.01 9.98 26.08L9.98 26.08Q9.81 26.11 9.84 26.27Q9.88 26.42 9.78 26.49L9.78 26.49Q8.72 26.15 7.60 26.21Q6.49 26.28 5.35 26.54Q4.20 26.79 3.01 27.09Q1.81 27.38 0.58 27.41ZM41.70 26.38L41.70 26.38Q41.36 26.56 41.07 26.69Q40.78 26.83 40.40 26.83L40.40 26.83Q39.07 25.84 39.02 23.38Q38.96 20.92 40.06 17.12L40.06 17.12Q40.23 17.02 40.23 16.71L40.23 16.71L39.92 16.37Q39.79 16.37 39.67 16.40Q39.55 16.44 39.48 16.64L39.48 16.64Q38.59 17.29 37.53 17.99Q36.47 18.69 35.32 19.29Q34.18 19.89 33.00 20.27Q31.82 20.64 30.69 20.64L30.69 20.64Q27.82 20.64 26.39 17.74L26.39 17.74L26.11 17.22L25.84 17.67Q25.74 17.81 25.53 18.23Q25.33 18.66 25.12 19.21Q24.92 19.75 24.76 20.32Q24.61 20.88 24.64 21.29L24.64 21.29Q24.34 21.60 23.99 22.01Q23.65 22.42 23.48 22.93L23.48 22.93Q23.41 23.21 23.55 23.45L23.55 23.45Q23.48 23.75 23.24 23.92L23.24 23.92Q23.11 24.09 22.95 24.25Q22.80 24.40 22.70 24.57L22.70 24.57Q22.63 24.74 22.61 24.92Q22.59 25.09 22.56 25.26L22.56 25.26Q22.56 25.50 22.49 25.70L22.49 25.70Q21.91 26.90 21.57 27.26Q21.23 27.62 20.64 27.62L20.64 27.62Q20.37 27.62 19.76 27.51L19.76 27.51Q19.31 27.03 18.95 26.20Q18.59 25.36 18.41 24.40Q18.22 23.45 18.23 22.47Q18.25 21.50 18.56 20.78L18.56 20.78Q18.56 20.75 18.83 20.10Q19.11 19.45 19.53 18.42Q19.96 17.40 20.51 16.15Q21.05 14.90 21.60 13.72Q22.15 12.54 22.64 11.55Q23.14 10.56 23.48 10.05L23.48 10.05Q23.75 9.64 23.98 9.28Q24.20 8.92 24.40 8.58L24.40 8.58Q25.02 7.52 25.58 6.82Q26.15 6.12 27.24 5.71L27.24 5.71Q27.99 6.01 28.33 6.42L28.33 6.42L28.40 6.80Q28.54 7.14 28.81 7.14L28.81 7.14Q29.19 7.24 29.45 7.33Q29.70 7.42 30.01 7.48L30.01 7.48Q30.25 7.76 30.45 8.13L30.45 8.13Q30.73 8.54 30.98 8.94Q31.24 9.33 31.39 9.72Q31.55 10.12 31.56 10.53Q31.58 10.94 31.41 11.38L31.41 11.38L31.45 11.72Q31.62 12.03 31.51 12.58L31.51 12.58Q31.48 12.82 31.48 13.07Q31.48 13.33 31.55 13.64L31.55 13.64Q32.16 14.11 32.64 14.11L32.64 14.11Q33.19 14.11 33.65 13.86Q34.11 13.60 34.52 13.33L34.52 13.33Q34.79 13.12 35.07 12.97Q35.34 12.82 35.62 12.78L35.62 12.78Q36.23 12.20 36.73 11.76Q37.22 11.31 37.77 10.87L37.77 10.87Q38.79 10.05 39.75 9.09Q40.71 8.13 41.29 6.70L41.29 6.70Q41.63 6.49 42.01 6.49L42.01 6.49Q42.38 6.49 42.79 6.66Q43.20 6.83 43.58 7.00L43.58 7.00Q43.68 7.07 43.77 7.11Q43.85 7.14 43.92 7.18L43.92 7.18Q43.92 7.52 44.19 7.76L44.19 7.76Q44.33 7.86 44.37 7.89Q44.40 7.93 44.47 7.96L44.47 7.96Q44.98 8.24 45.12 8.51L45.12 8.51Q45.36 9.29 45.97 9.71L45.97 9.71Q45.90 10.05 45.99 10.34Q46.07 10.63 46.21 10.94L46.21 10.94Q46.25 11.04 46.28 11.14Q46.31 11.24 46.38 11.38L46.38 11.38L45.73 11.31L45.83 11.96Q45.90 12.44 45.75 13.02Q45.60 13.60 45.39 13.94L45.39 13.94Q45.42 14.83 45.44 15.33Q45.46 15.82 45.39 16.25Q45.32 16.68 45.20 17.05Q45.08 17.43 44.88 17.87L44.88 17.87Q45.01 20.06 44.38 21.86Q43.75 23.65 43.07 25.22L43.07 25.22Q43.00 25.39 42.91 25.56Q42.83 25.74 42.76 25.91L42.76 25.91Q42.45 26.01 42.21 26.13Q41.97 26.25 41.70 26.38ZM64.70 23.99L64.63 24.13Q64.43 24.71 64.04 25.31Q63.64 25.91 63.11 26.37Q62.58 26.83 61.93 27.14Q61.28 27.44 60.57 27.48L60.57 27.48Q60.12 27.38 59.97 27.26Q59.81 27.14 59.64 27.03L59.64 27.03Q59.54 26.97 59.46 26.91Q59.37 26.86 59.30 26.83L59.30 26.83L58.89 26.66L59.03 26.21Q59.10 25.94 58.99 25.79Q58.89 25.63 58.58 25.36L58.58 25.36Q58.48 25.26 58.38 25.15Q58.28 25.05 58.21 24.95L58.21 24.95L57.63 24.30L58.55 24.06Q59.40 23.82 59.69 23.45Q59.99 23.07 59.92 22.18L59.92 22.18Q59.23 22.04 58.77 22.15Q58.31 22.25 57.83 22.39L57.83 22.39Q57.22 22.56 56.58 22.68Q55.95 22.80 55.20 22.80L55.20 22.80Q54.93 22.80 54.69 22.78Q54.45 22.76 54.17 22.73L54.17 22.73L53.83 22.66Q53.76 22.28 53.70 22.23Q53.63 22.18 53.56 22.11L53.56 22.11Q53.39 21.94 53.20 21.65Q53.01 21.36 53.12 20.92L53.12 20.92Q52.94 20.61 52.91 20.30L52.91 20.30Q52.71 20.71 52.60 21.16L52.60 21.16L52.47 21.50L52.12 21.57Q52.06 21.60 52.02 21.72Q51.99 21.84 51.99 21.91L51.99 21.91L51.82 22.49Q51.75 22.56 51.68 22.61Q51.61 22.66 51.54 22.73L51.54 22.73Q51.47 23.04 51.37 23.34Q51.27 23.65 51.17 23.92L51.17 23.92Q51.00 24.37 50.88 24.80Q50.76 25.22 50.79 25.63L50.79 25.63L50.65 26.01Q50.48 26.21 50.28 26.33Q50.07 26.45 49.87 26.56L49.87 26.56Q49.80 26.62 49.68 26.68Q49.56 26.73 49.49 26.76L49.49 26.76L49.39 27.14L48.98 27.21Q48.60 27.27 48.45 27.31Q48.30 27.34 48.09 27.34L48.09 27.34L47.75 27.31Q47.37 27 47.17 26.81Q46.96 26.62 46.69 26.45L46.69 26.45Q46.38 26.04 46.35 25.84Q46.31 25.63 46.28 25.46L46.28 25.46Q46.21 25.26 46.19 25.12Q46.18 24.98 46.11 24.92L46.11 24.92L45.66 24.50L46.04 24.20L46.07 23.62Q46.76 21.87 47.53 20.27Q48.30 18.66 49.12 16.99L49.12 16.99Q49.39 16.44 49.65 15.89Q49.90 15.34 50.18 14.80L50.18 14.80Q50.14 14.70 50.14 14.56Q50.14 14.42 50.21 14.25L50.21 14.25Q50.59 13.67 50.83 13.21Q51.06 12.75 51.30 12.27L51.30 12.27Q51.58 11.69 51.87 11.14Q52.16 10.59 52.60 10.01L52.60 10.01L53.15 9.77Q53.25 9.74 53.39 9.69Q53.53 9.64 53.70 9.64L53.70 9.64L54.21 9.71Q55.17 9.26 55.88 8.46Q56.60 7.65 57.35 6.53L57.35 6.53L57.70 6.05L58.14 6.32Q58.31 6.42 58.62 6.51Q58.93 6.59 59.27 6.70L59.27 6.70Q59.88 6.83 60.43 7.00Q60.98 7.18 61.32 7.52L61.32 7.52Q61.52 8.06 61.56 8.34Q61.59 8.61 61.66 8.88L61.66 8.88Q61.76 9.47 61.85 10.05Q61.93 10.63 61.97 11.35L61.97 11.35Q62.14 11.93 62.26 12.49Q62.38 13.05 62.48 13.64L62.48 13.64Q62.65 14.46 62.82 15.23Q62.99 15.99 63.27 16.68L63.27 16.68Q63.54 16.68 63.61 16.71L63.61 16.71Q63.78 16.64 63.97 16.61Q64.16 16.58 64.39 16.54L64.39 16.54L64.77 16.51L64.91 16.85Q64.94 17.02 65.25 17.19L65.25 17.19Q65.69 17.22 65.90 17.38Q66.10 17.53 66.27 17.70L66.27 17.70Q66.41 17.84 66.55 17.91L66.55 17.91L67.06 18.11L66.79 18.63Q66.45 19.24 65.81 19.81Q65.18 20.37 64.39 20.75L64.39 20.75Q64.43 20.95 64.45 21.14Q64.46 21.33 64.53 21.53L64.53 21.53Q64.63 22.11 64.70 22.73Q64.77 23.34 64.70 23.99L64.70 23.99ZM54.76 18.22L54.76 18.22Q55.78 18.15 56.62 18.06Q57.46 17.98 58.48 17.77L58.48 17.77Q58.24 16.75 57.97 15.64Q57.70 14.52 57.39 13.43L57.39 13.43L57.18 13.77Q56.50 14.49 55.87 15.38Q55.23 16.27 54.79 17.05L54.79 17.05Q54.58 17.36 54.38 17.67Q54.17 17.98 54.00 18.28L54.00 18.28Q54.21 18.25 54.40 18.25Q54.58 18.25 54.76 18.22ZM91.12 20.85L91.12 20.85Q90.30 22.32 88.97 23.12Q87.64 23.92 86.03 24.45Q84.42 24.98 82.66 25.39Q80.90 25.80 79.26 26.45L79.26 26.45Q78.78 26.45 78.43 26.49Q78.07 26.52 77.74 26.57Q77.42 26.62 77.11 26.68Q76.80 26.73 76.43 26.76L76.43 26.76Q76.29 26.73 76.25 26.81Q76.22 26.90 76.15 26.97L76.15 26.97Q75.57 27.07 75.11 27.07Q74.65 27.07 74.34 27.07L74.34 27.07Q73.93 27.07 73.50 27.19Q73.08 27.31 72.73 27.27L72.73 27.27Q70.17 27.14 68.72 25.44Q67.27 23.75 67.09 20.75L67.09 20.75Q67.13 20.57 67.04 20.54Q66.96 20.51 66.89 20.44L66.89 20.44Q66.89 20.10 66.98 19.86Q67.06 19.62 66.99 19.24L66.99 19.24Q67.88 17.36 69.01 15.74Q70.14 14.11 71.71 12.88L71.71 12.88Q71.95 12.68 72.12 12.47Q72.29 12.27 72.44 12.06Q72.60 11.86 72.80 11.70Q73.01 11.55 73.32 11.48L73.32 11.48Q74.03 10.66 75.02 9.98Q76.02 9.29 77.11 8.66Q78.20 8.03 79.28 7.40Q80.36 6.77 81.25 5.98L81.25 5.98Q81.62 6.15 81.79 6.08Q81.96 6.01 82.17 6.08L82.17 6.08Q82.41 6.59 82.83 6.80Q83.26 7.00 83.69 7.23Q84.12 7.45 84.49 7.76Q84.87 8.06 85.07 8.58L85.07 8.58Q84.87 8.58 84.89 8.73Q84.90 8.88 84.97 9.04Q85.04 9.19 85.02 9.35Q85.00 9.50 84.77 9.50L84.77 9.50Q84.80 9.67 84.99 9.69Q85.18 9.71 85.18 9.88L85.18 9.88Q85.18 10.05 85.09 10.15Q85.00 10.25 85.07 10.49L85.07 10.49Q84.39 10.94 83.55 11.35Q82.71 11.76 81.81 12.22Q80.90 12.68 79.93 13.21Q78.96 13.74 78.03 14.42L78.03 14.42Q77.11 15.11 76.15 15.94Q75.20 16.78 74.31 17.70Q73.42 18.63 72.63 19.60Q71.85 20.57 71.30 21.53L71.30 21.53Q71.37 21.70 71.45 21.79Q71.54 21.87 71.61 22.04L71.61 22.04Q72.70 22.11 73.64 22.03Q74.58 21.94 75.54 22.15L75.54 22.15Q75.64 22.08 75.67 21.94Q75.71 21.80 75.84 21.74L75.84 21.74Q77.79 21.53 79.47 21.10Q81.14 20.68 82.89 20.20L82.89 20.20Q82.61 20.10 82.39 20.01Q82.17 19.92 81.96 19.86L81.96 19.86Q81.79 19.69 81.98 19.57Q82.17 19.45 82.30 19.31L82.30 19.31Q81.83 19.04 81.54 18.63Q81.25 18.22 81.18 17.53L81.18 17.53Q81.38 17.36 81.38 17.12Q81.38 16.88 81.18 16.75L81.18 16.75Q81.04 16.71 81.01 16.75Q80.97 16.78 80.95 16.85Q80.94 16.92 80.90 16.97Q80.87 17.02 80.73 16.95L80.73 16.95Q80.77 16.64 80.89 16.44Q81.01 16.23 81.07 15.96L81.07 15.96L83.43 14.39Q83.81 14.66 84.36 14.99Q84.90 15.31 85.50 15.64Q86.10 15.96 86.73 16.28Q87.36 16.61 87.91 16.92L87.91 16.92Q88.39 17.12 88.76 17.46Q89.14 17.81 89.48 18.16Q89.82 18.52 90.18 18.87Q90.54 19.21 91.02 19.45L91.02 19.45Q90.95 19.89 91.05 20.16Q91.16 20.44 91.12 20.85ZM108.79 7.76L108.79 7.76Q108.83 8.00 108.81 8.12Q108.79 8.24 108.78 8.34Q108.76 8.44 108.76 8.56Q108.76 8.68 108.83 8.92L108.83 8.92Q108.11 10.08 107.17 10.51Q106.23 10.94 105.14 11.12Q104.04 11.31 102.90 11.52Q101.75 11.72 100.63 12.41L100.63 12.41Q100.18 12.23 99.82 12.41Q99.46 12.58 98.78 12.51L98.78 12.51Q98.57 12.71 98.27 12.80Q97.96 12.88 97.65 12.99L97.65 12.99Q97.79 13.29 97.77 13.62Q97.75 13.94 97.86 14.15L97.86 14.15Q99.05 14.25 100.51 14.11Q101.96 13.98 103.36 13.94L103.36 13.94Q103.39 14.11 103.33 14.17Q103.26 14.22 103.29 14.35L103.29 14.35Q103.53 14.52 103.77 14.78Q104.01 15.04 104.25 15.28Q104.49 15.52 104.74 15.67Q105 15.82 105.34 15.79L105.34 15.79Q105.48 16.06 105.53 16.39Q105.58 16.71 105.44 17.05L105.44 17.05Q104.90 17.43 104.35 17.82Q103.80 18.22 103.21 18.52Q102.61 18.83 101.94 19.02Q101.27 19.21 100.45 19.17L100.45 19.17Q100.28 19.17 100.20 19.17Q100.11 19.17 99.98 19.07L99.98 19.07Q99.70 19.24 99.21 19.17Q98.71 19.10 98.44 19.28L98.44 19.28Q98.06 19.10 97.53 19.12Q97.00 19.14 96.59 19.00L96.59 19.00Q96.04 19.72 95.60 20.54Q95.16 21.36 94.81 22.28L94.81 22.28Q95.98 22.45 96.75 22.42Q97.51 22.39 98.20 22.30Q98.88 22.21 99.60 22.13Q100.32 22.04 101.41 22.08L101.41 22.08Q102.09 21.70 103.03 21.58Q103.97 21.46 104.76 21.19L104.76 21.19Q105.03 21.29 105.24 21.55Q105.44 21.80 105.63 22.03Q105.82 22.25 106.03 22.42Q106.23 22.59 106.54 22.56L106.54 22.56Q106.67 22.69 106.73 22.88Q106.78 23.07 106.81 23.24Q106.85 23.41 106.93 23.53Q107.02 23.65 107.22 23.62L107.22 23.62Q106.71 24.74 106.04 25.34Q105.38 25.94 104.52 26.25Q103.67 26.56 102.62 26.73Q101.58 26.90 100.32 27.14L100.32 27.14Q100.01 27.21 99.80 27.12Q99.60 27.03 99.33 27.03L99.33 27.03Q98.54 27.21 97.45 27.34Q96.35 27.48 95.22 27.44Q94.10 27.41 93.07 27.15Q92.05 26.90 91.40 26.25L91.40 26.25Q91.12 26.01 91.04 25.68Q90.95 25.36 90.58 25.19L90.58 25.19Q90.54 24.74 90.44 24.20Q90.34 23.65 90.23 23.05Q90.13 22.45 90.08 21.87Q90.03 21.29 90.13 20.81L90.13 20.81Q90.23 20.30 90.56 19.89Q90.88 19.48 90.78 19.00L90.78 19.00Q90.95 18.97 90.99 18.81Q91.02 18.66 91.26 18.69L91.26 18.69Q91.46 18.08 91.70 17.53Q91.94 16.99 92.20 16.47Q92.46 15.96 92.71 15.43Q92.97 14.90 93.21 14.25L93.21 14.25Q92.73 13.81 92.51 13.28Q92.29 12.75 92.18 12.22Q92.08 11.69 92.01 11.12Q91.94 10.56 91.77 9.98L91.77 9.98Q92.11 9.47 92.61 9.14Q93.11 8.82 93.69 8.61Q94.27 8.41 94.95 8.27Q95.63 8.13 96.39 7.96L96.39 7.96Q97.75 7.52 98.83 7.28Q99.91 7.04 100.95 6.89Q101.99 6.73 103.12 6.59Q104.25 6.46 105.68 6.18L105.68 6.18Q105.99 6.49 106.26 6.49L106.26 6.49Q106.40 6.18 106.59 6.30Q106.78 6.42 106.74 6.12L106.74 6.12Q107.08 6.70 107.61 7.09Q108.14 7.48 108.79 7.76ZM108.49 25.84L108.49 25.84Q108.38 25.87 108.35 25.77Q108.32 25.67 108.33 25.56Q108.35 25.46 108.44 25.39Q108.52 25.33 108.66 25.39L108.66 25.39Q108.21 24.85 108.09 24.40Q107.97 23.96 107.63 23.31L107.63 23.31Q107.73 23.21 107.77 23.02Q107.80 22.83 107.85 22.66Q107.91 22.49 107.99 22.40Q108.08 22.32 108.21 22.45L108.21 22.45Q108.14 22.08 108.21 21.84Q108.28 21.60 108.37 21.39Q108.45 21.19 108.49 20.98Q108.52 20.78 108.38 20.51L108.38 20.51Q109.03 19.62 109.24 18.57Q109.44 17.53 109.48 16.68L109.48 16.68Q109.79 16.37 110.01 15.86Q110.23 15.34 110.33 14.80Q110.43 14.25 110.43 13.72Q110.43 13.19 110.30 12.88L110.30 12.88Q110.33 12.75 110.45 12.73Q110.57 12.71 110.74 12.75L110.74 12.75Q110.98 11.38 111.07 9.71Q111.15 8.03 111.41 6.48Q111.67 4.92 112.25 3.74Q112.83 2.56 114.09 2.22L114.09 2.22Q114.33 3.07 114.72 3.72Q115.12 4.37 115.58 4.99Q116.04 5.60 116.52 6.22Q117.00 6.83 117.41 7.59L117.41 7.59Q117.37 8.37 117.25 9.40Q117.13 10.42 116.95 11.48Q116.76 12.54 116.57 13.53Q116.38 14.52 116.21 15.21L116.21 15.21Q116.25 15.38 116.45 15.43Q116.66 15.48 116.52 15.82L116.52 15.82Q117.51 15.58 118.59 15.36Q119.66 15.14 120.71 14.92Q121.75 14.70 122.76 14.39Q123.76 14.08 124.65 13.64L124.65 13.64Q124.86 12.00 125.17 10.39Q125.47 8.78 125.23 7.14L125.23 7.14Q125.44 6.97 125.58 6.73Q125.71 6.49 125.99 6.42L125.99 6.42Q125.78 5.64 125.82 4.77Q125.85 3.89 126.11 3.14Q126.36 2.39 126.88 1.83Q127.39 1.26 128.14 1.09L128.14 1.09Q128.58 1.74 128.93 2.49Q129.27 3.25 129.61 4.01Q129.95 4.78 130.34 5.47Q130.74 6.15 131.35 6.63L131.35 6.63Q131.46 7.83 131.52 9.07Q131.59 10.32 131.63 11.65L131.63 11.65Q131.32 13.19 130.93 14.64Q130.53 16.10 130.36 17.74L130.36 17.74Q130.09 18.04 129.92 18.47Q129.75 18.90 129.59 19.33Q129.44 19.75 129.23 20.16Q129.03 20.57 128.72 20.85L128.72 20.85Q128.86 21.33 128.77 21.75Q128.69 22.18 128.99 22.76L128.99 22.76Q129.06 23.82 128.74 24.52Q128.41 25.22 127.85 25.72Q127.29 26.21 126.55 26.50Q125.82 26.79 125.10 27.03L125.10 27.03Q124.76 26.83 124.47 26.61Q124.17 26.38 123.76 26.28L123.76 26.28L123.94 25.97Q123.25 25.29 122.76 24.52Q122.26 23.75 122.29 22.76L122.29 22.76Q122.29 22.73 122.36 22.30Q122.43 21.87 122.52 21.39Q122.60 20.92 122.69 20.49Q122.77 20.06 122.77 20.03L122.77 20.03Q121.82 20.13 120.79 20.47Q119.77 20.81 118.79 21.24Q117.82 21.67 116.98 22.13Q116.14 22.59 115.63 22.90L115.63 22.90Q115.63 23.00 115.46 23.48Q115.29 23.96 115.05 24.49Q114.81 25.02 114.52 25.43Q114.23 25.84 113.92 25.80L113.92 25.80Q113.99 25.97 114.06 26.06Q114.13 26.15 114.06 26.38L114.06 26.38Q113.48 26.56 113.02 26.83Q112.55 27.10 112.08 27.29Q111.60 27.48 111.03 27.46Q110.47 27.44 109.68 27.03L109.68 27.03Q109.68 26.79 109.48 26.61Q109.27 26.42 109.05 26.28Q108.83 26.15 108.66 26.04Q108.49 25.94 108.49 25.84ZM152.48 7.55L152.48 7.55Q152.54 8.30 152.71 8.85Q152.89 9.40 153.09 9.91L153.09 9.91Q153.26 10.39 153.42 10.85Q153.57 11.31 153.64 11.96L153.64 11.96Q153.36 12.85 153.24 13.60Q153.13 14.35 152.99 15.17L152.99 15.17Q152.44 16.37 151.93 17.29Q151.42 18.22 151.11 18.90L151.11 18.90Q150.94 19.07 150.82 19.29Q150.70 19.51 150.56 19.75L150.56 19.75Q150.49 19.86 150.39 20.06Q150.29 20.27 150.22 20.33L150.22 20.33L149.54 20.10L149.40 20.95L148.92 21.09L148.58 21.50Q147.93 22.63 147.21 23.39Q146.49 24.16 145.59 24.76Q144.68 25.36 143.54 25.87Q142.39 26.38 140.96 27L140.96 27Q140.38 26.93 139.95 26.91Q139.52 26.90 139.15 26.86L139.15 26.86Q138.50 26.86 137.54 26.76L137.54 26.76Q137.44 26.49 137.23 26.38Q137.03 26.28 136.86 26.28L136.86 26.28Q136.27 26.01 135.98 25.48Q135.69 24.95 135.42 24.33L135.42 24.33Q135.25 23.96 135.08 23.63Q134.91 23.31 134.70 22.97L134.70 22.97L135.28 22.80L134.53 21.98Q134.46 21.87 134.36 21.79Q134.26 21.70 134.19 21.60L134.19 21.60L134.16 21.05Q134.05 18.69 134.07 16.73Q134.09 14.76 134.60 13.23L134.60 13.23L134.60 12.85Q134.70 12.10 134.80 11.60Q134.91 11.11 134.98 10.66L134.98 10.66Q135.08 9.91 135.28 9.26L135.28 9.26Q135.76 9.16 136.00 8.87Q136.24 8.58 136.41 8.34L136.41 8.34Q136.89 8.30 137.06 8.47Q137.23 8.65 137.40 9.02L137.40 9.02Q137.57 9.33 137.83 9.71Q138.09 10.08 138.60 10.29L138.60 10.29Q138.67 10.56 138.79 10.85Q138.91 11.14 139.04 11.48L139.04 11.48Q139.32 12.06 139.54 12.70Q139.76 13.33 139.79 13.91L139.79 13.91Q139.45 14.56 139.27 15.41Q139.08 16.27 139.03 17.14Q138.97 18.01 139.06 18.81Q139.15 19.62 139.35 20.16L139.35 20.16L139.56 20.61L140.14 20.54Q141.16 20.27 142.00 19.94Q142.84 19.62 143.55 19.17Q144.27 18.73 144.92 18.13Q145.57 17.53 146.29 16.75L146.29 16.75Q147.01 15.96 147.54 14.95Q148.07 13.94 148.43 12.85Q148.78 11.76 148.97 10.68Q149.16 9.60 149.23 8.65L149.23 8.65Q149.81 8.44 149.81 7.83L149.81 7.83L149.74 7.45Q149.60 7.24 149.74 6.97L149.74 6.97Q149.95 6.32 150.70 5.98L150.70 5.98Q151.25 6.32 151.67 6.73Q152.10 7.14 152.48 7.55ZM171.55 21.43L171.55 21.43Q171.75 21.53 171.79 21.77Q171.82 22.01 171.79 22.15L171.79 22.15Q171.17 22.93 170.93 23.24Q170.69 23.55 170.59 23.70Q170.49 23.86 170.37 23.96Q170.25 24.06 169.84 24.40L169.84 24.40Q168.30 25.33 166.68 26.04Q165.05 26.76 163.28 27.03L163.28 27.03Q163.00 27.41 162.23 27.56Q161.46 27.72 160.82 27.85L160.82 27.85Q160.68 27.79 160.66 27.67Q160.64 27.55 160.51 27.48L160.51 27.48Q160.47 27.82 160.20 27.84Q159.93 27.85 159.53 27.70Q159.14 27.55 158.71 27.29Q158.29 27.03 157.98 26.83L157.98 26.83Q157.81 27.10 157.62 27.38Q157.43 27.65 157.16 27.75L157.16 27.75Q156.78 27.68 156.59 27.65Q156.41 27.62 156.24 27.79L156.24 27.79Q156.03 27.68 155.91 27.55Q155.79 27.41 155.67 27.29Q155.55 27.17 155.40 27.07Q155.24 26.97 154.97 26.90L154.97 26.90Q155.04 26.76 154.90 26.47Q154.77 26.18 154.49 26.11L154.49 26.11Q154.63 25.87 154.37 25.51Q154.12 25.15 153.98 24.71L153.98 24.71Q154.05 24.33 154.08 23.89Q154.12 23.45 154.49 23.38L154.49 23.38Q154.46 23.14 154.39 22.97Q154.32 22.80 154.25 22.63L154.25 22.63Q154.49 22.42 154.59 22.13Q154.70 21.84 154.77 21.53Q154.83 21.22 154.94 20.92Q155.04 20.61 155.31 20.40L155.31 20.40Q155.62 19.38 155.79 18.88Q155.96 18.39 156.05 17.91Q156.13 17.43 156.25 16.88Q156.37 16.34 156.68 15.52L156.68 15.52Q156.65 15.00 156.78 14.61Q156.92 14.22 157.07 13.82Q157.23 13.43 157.33 13.00Q157.43 12.58 157.29 12.00L157.29 12.00Q156.82 12.03 156.61 12.32Q156.41 12.61 156.34 13.09L156.34 13.09Q156.06 13.36 155.67 13.35Q155.28 13.33 154.97 13.43L154.97 13.43Q153.77 12.95 152.99 12.06Q152.20 11.17 151.72 9.98L151.72 9.98Q152.03 9.19 152.65 8.66Q153.26 8.13 154.05 7.77Q154.83 7.42 155.72 7.19Q156.61 6.97 157.43 6.77L157.43 6.77Q158.76 6.53 160.10 6.22Q161.43 5.91 162.97 6.01L162.97 6.01Q163.17 5.91 163.46 5.89Q163.75 5.88 164.06 5.88Q164.37 5.88 164.66 5.86Q164.95 5.84 165.16 5.74L165.16 5.74Q165.33 5.95 165.65 6.00Q165.98 6.05 166.35 6.32L166.35 6.32Q166.76 6.01 167.05 6.18Q167.34 6.36 167.58 6.56Q167.82 6.77 168.04 6.94Q168.27 7.11 168.51 7.11L168.51 7.11Q168.75 7.42 169.10 7.69Q169.46 7.96 169.79 8.25Q170.11 8.54 170.33 8.88Q170.56 9.23 170.56 9.67L170.56 9.67Q170.52 9.84 170.66 9.88Q170.80 9.91 170.86 10.01L170.86 10.01Q170.90 11.07 170.54 11.84Q170.18 12.61 169.65 13.26Q169.12 13.91 168.49 14.49Q167.86 15.07 167.34 15.72L167.34 15.72Q167.69 16.17 168.13 16.51Q168.57 16.85 169.04 17.19Q169.50 17.53 169.91 17.91Q170.32 18.28 170.59 18.80L170.59 18.80Q170.66 18.87 170.76 18.92Q170.86 18.97 170.97 19.04L170.97 19.04Q171.07 19.38 171.24 19.74Q171.41 20.10 171.53 20.42Q171.65 20.75 171.68 21.00Q171.72 21.26 171.55 21.43ZM165.53 10.01L165.53 10.01Q163.79 9.94 162.06 10.32Q160.34 10.70 159.17 11.38L159.17 11.38Q159.76 11.86 160.35 12.23Q160.95 12.61 161.29 13.26L161.29 13.26Q162.63 12.71 163.65 11.88Q164.68 11.04 165.53 10.01ZM165.98 20.92L165.98 20.92Q166.08 20.57 166.35 20.37Q166.63 20.16 166.90 19.98Q167.17 19.79 167.38 19.57Q167.58 19.34 167.55 18.93L167.55 18.93Q166.46 18.35 165.55 18.23Q164.64 18.11 163.84 18.23Q163.04 18.35 162.30 18.59Q161.57 18.83 160.82 18.93L160.82 18.93Q160.44 19.92 160.03 21.09Q159.62 22.25 159.24 23.34L159.24 23.34Q160.27 23.21 161.12 22.92Q161.98 22.63 162.78 22.28Q163.58 21.94 164.35 21.58Q165.12 21.22 165.98 20.92Z"/></g>
        
      </svg>
    